<?xml version="1.0" encoding="UTF-8"?> <svg xmlns="http://www.w3.org/2000/svg" viewBox="0 0 288.91 38.21"><title>Logo-Web-IML-NoPaddingAsset 22</title><g id="Layer_2" data-name="Layer 2"><g id="Layer_1-2" data-name="Layer 1"><path d="M53.33,8V30.62H47.45V8Z"></path><path d="M55.55,30.62,59.4,8h5.82l4.53,12.07L74.26,8h5.82l3.84,22.63H78.07l-1.95-13-5.35,13H68.43l-5.07-13-2,13Z"></path><path d="M85.12,30.62,89,8h5.83l4.53,12.07L103.82,8h5.83l3.84,22.63h-5.85l-2-13-5.34,13H98l-5.07-13-2,13Z"></path><path d="M128.59,13h-7v3.78h6.61v5h-6.61v3.9h7v5H115.71V8h12.88Z"></path><path d="M150.14,30.62h-7.32l-5.62-8.7v8.7h-5.88V8h9.15a9,9,0,0,1,3.31.55,6.25,6.25,0,0,1,3.7,3.74A7.74,7.74,0,0,1,148,15a6.65,6.65,0,0,1-1.25,4.19A6.26,6.26,0,0,1,143,21.35ZM137.2,18.11h1.11a4.29,4.29,0,0,0,2.67-.73,2.47,2.47,0,0,0,.94-2.07,2.47,2.47,0,0,0-.94-2.07,4.29,4.29,0,0,0-2.67-.72H137.2Z"></path><path d="M163.53,13.78a7.24,7.24,0,0,0-1.92-1.15,5.11,5.11,0,0,0-1.86-.38,3,3,0,0,0-1.87.54,1.68,1.68,0,0,0-.72,1.41,1.4,1.4,0,0,0,.36,1,3.17,3.17,0,0,0,.95.68,8.09,8.09,0,0,0,1.32.49c.49.14,1,.29,1.46.45a9.14,9.14,0,0,1,4.21,2.57,6.34,6.34,0,0,1,1.34,4.19,8.15,8.15,0,0,1-.59,3.15,6.59,6.59,0,0,1-1.71,2.42,7.89,7.89,0,0,1-2.76,1.56,11.49,11.49,0,0,1-3.71.55,13.63,13.63,0,0,1-7.95-2.55L152.6,24a10.22,10.22,0,0,0,2.61,1.74,6.27,6.27,0,0,0,2.55.57,3.06,3.06,0,0,0,2.15-.66,2,2,0,0,0,.71-1.5,2,2,0,0,0-.18-.89,1.92,1.92,0,0,0-.6-.69,4.86,4.86,0,0,0-1.1-.58c-.45-.18-1-.38-1.64-.6s-1.5-.51-2.23-.8a7,7,0,0,1-2-1.15,5.39,5.39,0,0,1-1.38-1.82A6.44,6.44,0,0,1,151,14.8a8,8,0,0,1,.56-3,6.62,6.62,0,0,1,4-3.86,9.27,9.27,0,0,1,3.25-.54,14.25,14.25,0,0,1,3.52.46,15.5,15.5,0,0,1,3.51,1.37Z"></path><path d="M174.87,8V30.62H169V8Z"></path><path d="M182.14,8l5.46,13.78L193.09,8h6.4l-9.55,22.63h-4.68L175.74,8Z"></path><path d="M213.24,13h-7v3.78h6.61v5h-6.61v3.9h7v5H200.36V8h12.88Z"></path><path d="M221.85,8V25.64h7.06v5H216V8Z" fill="#00b4e5"></path><path d="M253.94,8h8.77a6.74,6.74,0,0,1,4.74,1.5,5.6,5.6,0,0,1,1.62,4.32,5.88,5.88,0,0,1-.62,2.84,5.17,5.17,0,0,1-1.87,1.91,7.07,7.07,0,0,1,2.14.73,4.67,4.67,0,0,1,1.44,1.22,4.55,4.55,0,0,1,.8,1.62,7.43,7.43,0,0,1,.24,1.92,6.64,6.64,0,0,1-.56,2.82,5.73,5.73,0,0,1-1.56,2.07,6.65,6.65,0,0,1-2.44,1.26,11.57,11.57,0,0,1-3.24.42h-9.46Zm5.88,8.88h1.08c1.85,0,2.77-.73,2.77-2.19s-.92-2.19-2.77-2.19h-1.08Zm0,9.19h1.29a6.6,6.6,0,0,0,3.19-.57,2,2,0,0,0,1-1.83,2,2,0,0,0-1-1.83,6.6,6.6,0,0,0-3.19-.57h-1.29Z" fill="#00b4e5"></path><path d="M285.64,13.78a7.24,7.24,0,0,0-1.92-1.15,5.11,5.11,0,0,0-1.86-.38,3,3,0,0,0-1.86.54,1.68,1.68,0,0,0-.72,1.41,1.44,1.44,0,0,0,.35,1,3.31,3.31,0,0,0,.95.68,8.09,8.09,0,0,0,1.32.49c.49.14,1,.29,1.46.45a9.23,9.23,0,0,1,4.22,2.57,6.34,6.34,0,0,1,1.33,4.19,8.15,8.15,0,0,1-.58,3.15,6.73,6.73,0,0,1-1.72,2.42,7.89,7.89,0,0,1-2.76,1.56,11.47,11.47,0,0,1-3.7.55,13.63,13.63,0,0,1-8-2.55L274.71,24a10.22,10.22,0,0,0,2.61,1.74,6.28,6.28,0,0,0,2.56.57,3,3,0,0,0,2.14-.66,2,2,0,0,0,.71-1.5,2,2,0,0,0-.18-.89,1.92,1.92,0,0,0-.6-.69,4.86,4.86,0,0,0-1.1-.58c-.45-.18-1-.38-1.63-.6s-1.51-.51-2.24-.8a7,7,0,0,1-2-1.15,5.39,5.39,0,0,1-1.38-1.82,6.44,6.44,0,0,1-.53-2.78,8,8,0,0,1,.56-3,6.62,6.62,0,0,1,4-3.86A9.33,9.33,0,0,1,281,7.36a14.23,14.23,0,0,1,3.51.46A15.5,15.5,0,0,1,288,9.19Z" fill="#00b4e5"></path><path d="M244.66,8h-6.42l-8.59,22.64h6.15l.08-.23,3.58-10L239,17.67l-.12-.62H244l-.11.62-.5,2.76,3.59,10,.08.23h6.14Z" fill="#00b4e5"></path><path d="M0,0V38.21H38.21V0Z" fill="#00b4e5"></path><polygon points="15.56 29.37 10.32 29.37 10.32 9.24 10.39 9.24 15.56 14.4 15.56 29.37" fill="#fff"></polygon><polygon points="30.67 29.37 19.16 29.37 19.16 14.37 24.29 9.24 24.39 9.24 24.39 24.94 30.67 24.94 30.67 29.37" fill="#fff"></polygon></g></g></svg> 